<svg width="355.89000000000004" height="53.5" xmlns="http://www.w3.org/2000/svg">

 <title>title</title>
 <g>
  <title>background</title>
  <rect fill="none" id="canvas_background" height="402" width="582" y="-1" x="-1"/>
 </g>
 <g>
  <title>Layer 1</title>
  <path fill="#ff7f00" id="svg_1" d="m25.38,53.5c-14.47,0 -25.38,-11.5 -25.38,-26.72s10.91,-26.78 25.38,-26.78a25.64,25.64 0 0 1 18.62,7.82l1.37,1.41l-6,6l-1.47,-1.38a17.61,17.61 0 0 0 -12.52,-5.23c-9.71,0 -16.76,7.64 -16.76,18.16s7,18.09 16.76,18.09a17.48,17.48 0 0 0 12.62,-5.28l1.43,-1.46l6,6.14l-1.43,1.41a25.73,25.73 0 0 1 -18.62,7.82z" class="cls-1"/>
  <path fill="#ff7f00" id="svg_2" d="m79.7,53.5c-14.7,0 -26.22,-11.74 -26.22,-26.72s11.52,-26.78 26.22,-26.78s26.3,11.76 26.3,26.78s-11.55,26.72 -26.3,26.72zm0,-44.88c-9.87,0 -17.6,8 -17.6,18.16s7.73,18.09 17.6,18.09s17.67,-7.95 17.67,-18.09s-7.76,-18.16 -17.67,-18.16z" class="cls-1"/>
  <path fill="#ff7f00" id="svg_3" d="m157.72,52.79l-7.88,0l-21.45,-35.25l0,35.25l-8.62,0l0,-52.23l8.09,0l21.24,35l0,-35l8.62,0l0,52.23z" class="cls-1"/>
  <path fill="#ff7f00" id="svg_4" d="m193.84,52.79l-8.62,0l0,-43.61l-15.47,0l0,-8.62l39.56,0l0,8.62l-15.47,0l0,43.61z" class="cls-1"/>
  <path fill="#ff7f00" id="svg_5" d="m258.52,52.79l-9.25,0l-4.9,-12.67l-19.58,0l-4.79,12.67l-9.3,0l20.09,-52.23l7.65,0l20.08,52.23zm-30.52,-21.01l13.22,0l-6.61,-17.21l-6.61,17.21z" class="cls-1"/>
  <path fill="#ff7f00" id="svg_6" d="m290,53.5c-14.49,0 -25.4,-11.5 -25.4,-26.72s10.91,-26.78 25.4,-26.78a25.64,25.64 0 0 1 18.59,7.82l1.37,1.41l-6,6l-1.41,-1.41a17.61,17.61 0 0 0 -12.55,-5.2c-9.71,0 -16.76,7.64 -16.76,18.16s7,18.09 16.76,18.09a17.48,17.48 0 0 0 12.57,-5.28l1.43,-1.45l6,6.14l-1.35,1.4a25.73,25.73 0 0 1 -18.65,7.82z" class="cls-1"/>
  <path cy="67.393436" cx="339.469887" ry="26.624982" rx="10.649993" fill="#ff7f00" id="svg_7" d="m340.42,52.79l-8.62,0l0,-43.61l-15.47,0l0,-8.62l39.56,0l0,8.62l-15.47,0l0,43.61z" class="cls-1"/>
 </g>
</svg>